<?xml version="1.0" encoding="UTF-8"?>
<svg xmlns="http://www.w3.org/2000/svg" viewBox="0 0 732 229" width="732" height="229">

<path d="M161.44 107.11C166.59 107.33 171.73 107.54 176.87 107.75C178.64 112.28 177.33 122.09 177.35 127.25C177.36 129.58 176.64 133.32 178.25 135C185.15 130.53 193.29 120.67 199.46 114.71C201.59 112.64 204.49 108.55 207.33 107.58C210.99 106.33 216.39 107.27 220.25 107.27C223.38 107.27 227.95 106.49 230.75 107.88C219.11 119.67 207.47 131.46 195.83 143.25C197.9 147.59 202.58 151.38 205.75 155C212.35 162.56 218.97 170.1 225.59 177.65C227.4 179.71 235.85 188.22 235.65 190.25C230.45 191.46 224.1 190.66 218.75 190.61C216.69 190.59 213.9 191.09 211.98 190.25C209 188.97 206 183.81 203.86 181.38C199.05 175.88 194.07 170.48 189.39 164.87C187.19 162.22 184.99 159.04 182.25 156.96C180.56 157.3 178.22 159.05 177.61 160.84C176.45 164.27 177.12 176.44 177.48 180.45C177.44 183.62 177.39 186.79 177.35 189.96C175.54 191.21 159.16 191.2 157.24 190C157.15 186.79 157.07 183.58 156.98 180.37C156.98 157.45 156.98 134.53 156.98 111.61C157.07 110.41 157.16 109.2 157.25 108C157.5 107.75 157.75 107.5 158 107.25C159.15 107.2 160.3 107.16 161.44 107.11ZM604.75 155.77C601.58 155.77 598.42 155.77 595.25 155.77C591.73 144.54 574.04 147.37 572.86 159.25C572.42 163.73 572.42 170.32 576.28 173.48C581.06 177.4 592.18 177.4 594.61 170.75C591.67 170.42 588.72 170.08 585.78 169.75C585.78 167.08 585.78 164.42 585.78 161.75C588.23 160.59 603 160.5 605.24 161.75C606.21 166.75 605.96 174.62 602.43 178.67C593.41 188.99 567.54 187.04 563.28 171.44C558.65 154.48 565.96 139.31 584.94 140.26C592.62 140.64 607.7 144.94 604.75 155.77ZM257.29 141.02C259.15 148.33 257.74 161.26 257.74 169.25C257.74 173.93 258.52 179.44 257.25 183.93C253.91 183.93 250.56 183.93 247.22 183.93C247.22 169.62 247.22 155.32 247.22 141.02C250.58 141.02 253.93 141.02 257.29 141.02ZM286.66 141.02C286.66 155.32 286.66 169.62 286.66 183.92C283.16 183.92 279.66 183.92 276.16 183.92C276.16 169.62 276.16 155.32 276.16 141.02C279.66 141.02 283.16 141.02 286.66 141.02ZM339.99 141.07C339.99 152.38 339.99 163.69 339.99 175C348.18 175.32 356.36 175.64 364.54 175.96C364.54 178.62 364.54 181.29 364.54 183.96C353.06 183.96 341.57 183.96 330.09 183.96C328.82 180.38 329.6 175.55 329.6 171.75C329.6 165.4 328.42 145.89 330.04 141.07C333.35 141.07 336.67 141.07 339.99 141.07ZM393.35 141.03C393.35 155.33 393.35 169.62 393.35 183.92C389.9 183.92 386.44 183.92 382.98 183.92C382.98 169.62 382.98 155.33 382.98 141.03C386.44 141.03 389.9 141.03 393.35 141.03ZM422.25 141.09C426.08 150.6 429.92 160.11 433.75 169.62C437.58 160.1 441.42 150.58 445.25 141.07C448.45 141.07 451.66 141.07 454.86 141.07C454.96 145.5 451.81 150.77 450.21 154.93C446.5 164.56 442.9 174.26 439.25 183.91C435.63 183.91 432 183.91 428.38 183.91C423 169.64 417.63 155.36 412.25 141.09C415.58 141.09 418.92 141.09 422.25 141.09ZM484.47 141.02C484.47 155.31 484.47 169.6 484.47 183.89C480.98 183.89 477.48 183.89 473.99 183.89C473.99 169.6 473.99 155.31 473.99 141.02C477.48 141.02 480.98 141.02 484.47 141.02ZM532.84 168.75C533.14 159.52 533.45 150.3 533.75 141.07C536.93 141.07 540.11 141.07 543.29 141.07C544.58 144.24 543.81 148.81 543.81 152.25C543.81 159.42 543.81 166.58 543.81 173.75C543.81 176.97 544.46 180.96 543.25 183.94C539.2 183.94 535.15 183.94 531.1 183.94C525.31 174.71 519.53 165.48 513.74 156.25C513.41 165.47 513.08 174.7 512.75 183.92C509.41 183.92 506.07 183.92 502.73 183.92C502.73 169.7 502.73 155.47 502.73 141.25C505.14 140.92 513.46 140.26 515.42 141.34C517.02 142.21 518.24 145.56 519.16 147.1C522.22 152.19 525.49 157.18 528.44 162.32C529.54 164.23 530.8 167.78 532.84 168.75Z" fill="#0f2241" fill-rule="evenodd" stroke="#0f2241" stroke-width="0.25" stroke-linejoin="round"/>
<path d="M191.25 39.09C207.07 57.64 222.9 76.2 238.72 94.75C236.65 95.66 225.35 95.97 223.48 94.76C220.49 92.83 218.08 88.65 215.78 85.96C210.04 79.25 204 72.68 198.43 65.83C195.69 62.47 192.85 57.89 189.25 55.46C184.29 56.91 179.94 63 175.98 66.23C164.23 75.81 152.49 85.8 141.35 96.08C138.04 99.14 130.24 107.41 126.25 108.42C124.21 106.03 122.16 103.64 120.12 101.25C121.1 98.61 124.47 96.61 126.62 94.85C130.63 91.57 134.47 88.04 138.41 84.67C151.07 73.83 163.47 62.71 176.14 51.9C180.08 48.54 186.98 41.07 191.25 39.09ZM161.44 107.11C160.3 107.16 159.15 107.2 158 107.25C157.75 107.5 157.5 107.75 157.25 108C157.16 109.2 157.07 110.41 156.98 111.61C151.51 112.87 153.56 123.07 153.61 127.25C153.77 138.89 153.85 150.61 153.72 162.25C153.66 167.76 152.6 174.39 153.89 179.75C154.92 179.96 155.95 180.16 156.98 180.37C157.07 183.58 157.15 186.79 157.24 190C153.83 191.42 147.06 192.04 143.77 190.25C143.43 168.15 143.09 146.06 142.75 123.96C137.25 128.25 131.75 132.55 126.25 136.84C124.16 134.48 122.08 132.11 119.99 129.75C122.03 125.45 134.42 116.54 138.61 112.84C150.83 102.05 163.1 91.34 175.47 80.72C179.78 77.02 186.26 69.5 191.25 67.44C193.39 69.88 195.53 72.31 197.66 74.75C185.59 85.54 173.52 96.33 161.44 107.11ZM177.48 180.45C178.62 180.55 179.75 180.65 180.89 180.75C181.76 183.24 182.08 188.72 180.25 190.69C179.28 190.45 178.32 190.2 177.35 189.96C177.39 186.79 177.44 183.62 177.48 180.45Z" fill="#ff3c34" fill-rule="evenodd" stroke="#ff3c34" stroke-width="0.25" stroke-linejoin="round"/>
</svg>